<svg xmlns="http://www.w3.org/2000/svg" version="1.1" xmlns:xlink="http://www.w3.org/1999/xlink" xmlns:svgjs="http://svgjs.com/svgjs" width="1440" height="633" preserveAspectRatio="none" viewBox="0 0 1440 633"><g mask="url(&quot;#SvgjsMask1419&quot;)" fill="none"><rect width="1440" height="633" x="0" y="0" fill="url(#SvgjsLinearGradient1420)"></rect><path d="M218.94 668.5C415.53 652.43 549.91 256.27 891.14 255.38 1232.37 254.49 1389.55 431.14 1563.34 432.62" stroke="rgba(194, 51, 51, 0.58)" stroke-width="2"></path><path d="M441.44 673.95C575.04 673.87 691.94 623.41 972.93 618.34 1253.93 613.27 1350.98 319.24 1504.43 308.17" stroke="rgba(194, 51, 51, 0.58)" stroke-width="2"></path><path d="M456.29 732.63C663.21 695.03 759.59 180.47 1087.92 177 1416.26 173.53 1554.22 370.99 1719.56 373.23" stroke="rgba(194, 51, 51, 0.58)" stroke-width="2"></path><path d="M503.61 684.57C642.68 604.76 570.61 134.12 825.34 129.72 1080.06 125.32 1298.17 354.27 1468.79 357.6" stroke="rgba(194, 51, 51, 0.58)" stroke-width="2"></path><path d="M450.37 743.98C660.69 696.97 744.51 146.14 1067.28 141.85 1390.04 137.56 1520.34 360.08 1684.18 363.4" stroke="rgba(194, 51, 51, 0.58)" stroke-width="2"></path></g><defs><mask id="SvgjsMask1419"><rect width="1440" height="633" fill="#ffffff"></rect></mask><linearGradient x1="14.01%" y1="-31.87%" x2="85.99%" y2="131.87%" gradientUnits="userSpaceOnUse" id="SvgjsLinearGradient1420"><stop stop-color="rgba(0, 0, 0, 1)" offset="0.31"></stop><stop stop-color="rgba(158, 0, 0, 1)" offset="1"></stop></linearGradient></defs></svg>